<svg width="440" height="134" viewBox="0 0 440 134" fill="none" xmlns="http://www.w3.org/2000/svg">
<rect width="440" height="134" rx="10" fill="#343A40"/>
<path d="M118.264 48.272L113.944 47.984C114.04 48.896 114.04 49.76 113.896 51.392C113.8 52.784 113.608 54.512 113.368 56.432C109.816 56.192 105.88 55.616 102.856 54.656L102.664 58.16C105.688 58.928 109.48 59.552 112.984 59.84C112.6 62.672 112.216 65.696 111.928 68.528C108.52 68.24 104.872 67.664 101.704 66.56L101.512 70.256C104.44 71.168 107.944 71.696 111.544 71.984C111.304 74.24 111.16 76.16 111.16 77.504C111.16 85.376 116.392 88.208 122.92 88.208C132.424 88.208 138.76 83.888 138.76 76.736C138.76 72.608 137.176 69.296 133.864 65.648L129.64 66.512C133.144 69.488 134.872 73.088 134.872 76.304C134.872 81.248 130.216 84.464 122.92 84.464C117.448 84.464 114.856 81.584 114.856 76.928C114.856 75.776 114.952 74.096 115.144 72.176C115.72 72.176 116.296 72.176 116.872 72.176C120.136 72.176 123.112 72.032 126.28 71.696L126.376 68.048C123.016 68.528 119.656 68.672 116.392 68.672C116.104 68.672 115.816 68.672 115.48 68.672C115.816 65.84 116.2 62.816 116.536 59.984C116.632 59.984 116.776 59.984 116.872 59.984C120.76 59.984 123.544 59.84 126.616 59.552L126.712 55.952C123.928 56.384 120.664 56.576 116.968 56.576C117.256 54.56 117.496 52.88 117.64 51.632C117.784 50.576 117.928 49.568 118.264 48.272ZM152.68 66.848L154.312 70.784C157.384 69.584 167.896 65.168 173.848 65.168C178.744 65.168 181.96 68.24 181.96 72.272C181.96 80.096 172.84 83.072 162.472 83.408L164.008 87.104C176.968 86.288 185.848 81.584 185.848 72.368C185.848 65.792 180.952 61.712 174.136 61.712C168.472 61.712 160.6 64.592 157.192 65.648C155.656 66.128 154.12 66.56 152.68 66.848ZM207.784 48.656L203.992 50.24C206.2 55.472 208.744 61.088 210.952 65.024C205.816 68.624 202.648 72.512 202.648 77.456C202.648 84.656 209.176 87.344 218.2 87.344C224.2 87.344 229.72 86.768 233.368 86.144V81.872C229.624 82.832 223.24 83.504 218.008 83.504C210.424 83.504 206.632 81.008 206.632 77.024C206.632 73.376 209.32 70.208 213.784 67.328C218.488 64.208 225.112 61.04 228.376 59.36C229.768 58.64 230.968 58.016 232.072 57.344L229.96 53.936C228.952 54.752 227.944 55.376 226.552 56.192C223.912 57.632 218.728 60.176 214.216 62.912C212.104 59.12 209.704 53.936 207.784 48.656ZM259.336 47.504H245.512V50.384H259.336V47.504ZM261.112 53.792H243.016V56.72H261.112V53.792ZM256.312 75.968V84.032H248.296V75.968H256.312ZM259.432 73.04H245.176V89.12H248.296V86.912H259.432V73.04ZM245.272 69.488H259.48V66.608H245.272V69.488ZM245.272 63.104H259.48V60.272H245.272V63.104ZM287.032 74.528H275.704V67.712H285.352V64.496H275.704V58.256H286.36V54.944H280.072C281.368 52.784 282.904 49.616 284.248 46.88L280.744 45.776C279.976 48.32 278.296 51.968 277.096 54.272L278.824 54.944H269.176L270.904 54.224C270.376 52.016 268.744 48.656 267.16 46.112L264.28 47.168C265.72 49.52 267.112 52.688 267.736 54.944H262.216V58.256H272.248V64.496H263.128V67.712H272.248V74.528H260.728V77.792H272.248V89.648H275.704V77.792H287.032V74.528ZM305.32 48.608L300.472 48.56C300.76 49.952 300.856 51.68 300.856 53.456C300.856 58.496 300.376 70.64 300.376 77.744C300.376 85.568 305.128 88.448 312.04 88.448C322.6 88.448 328.792 82.4 332.104 77.84L329.368 74.576C325.912 79.568 320.968 84.512 312.184 84.512C307.624 84.512 304.312 82.64 304.312 77.36C304.312 70.208 304.648 58.88 304.888 53.456C304.936 51.872 305.08 50.192 305.32 48.608ZM370.792 50.576L367.24 47.408C366.664 48.32 365.464 49.664 364.504 50.624C361.24 53.936 353.944 59.696 350.344 62.72C346.024 66.368 345.448 68.432 350.008 72.224C354.472 75.92 361.768 82.16 365.128 85.616C366.328 86.768 367.432 87.968 368.44 89.12L371.848 85.952C366.76 80.864 358.264 74 353.896 70.448C350.824 67.856 350.872 67.088 353.752 64.64C357.304 61.664 364.216 56.192 367.48 53.312C368.296 52.64 369.784 51.392 370.792 50.576ZM407.416 74.384H410.584L411.544 55.76L411.64 50.096H406.36L406.456 55.76L407.416 74.384ZM409 86.24C410.68 86.24 412.072 84.992 412.072 83.072C412.072 81.152 410.68 79.856 409 79.856C407.32 79.856 405.928 81.152 405.928 83.072C405.928 84.992 407.272 86.24 409 86.24Z" fill="white"/>
<circle cx="52" cy="67" r="25" fill="#C4C4C4"/>
<path d="M63 68.5L45.75 78.4593L45.75 58.5407L63 68.5Z" fill="#343A40"/>
</svg>
