<svg width="757" height="400" viewBox="0 0 757 400" fill="none" xmlns="http://www.w3.org/2000/svg">
<path d="M314 13V39.1333H412V13H314ZM335.233 30.965H325.433V21.165H335.233V30.965Z" fill="#4B4B4B"/>
<path d="M314 71.8H412V45.6665H314V71.8ZM325.433 53.8316H335.233V63.6316H325.433V53.8316V53.8316Z" fill="#4B4B4B"/>
<path d="M314 104.467H412V78.3333H314V104.467ZM325.433 86.4983H335.233V96.2983H325.433V86.4983V86.4983Z" fill="#4B4B4B"/>
<path d="M336.188 120.395C334.258 119.84 332.852 119.16 331.969 118.355C331.094 117.543 330.656 116.543 330.656 115.355C330.656 114.012 331.191 112.902 332.262 112.027C333.34 111.145 334.738 110.703 336.457 110.703C337.629 110.703 338.672 110.93 339.586 111.383C340.508 111.836 341.219 112.461 341.719 113.258C342.227 114.055 342.48 114.926 342.48 115.871H340.219C340.219 114.84 339.891 114.031 339.234 113.445C338.578 112.852 337.652 112.555 336.457 112.555C335.348 112.555 334.48 112.801 333.855 113.293C333.238 113.777 332.93 114.453 332.93 115.32C332.93 116.016 333.223 116.605 333.809 117.09C334.402 117.566 335.406 118.004 336.82 118.402C338.242 118.801 339.352 119.242 340.148 119.727C340.953 120.203 341.547 120.762 341.93 121.402C342.32 122.043 342.516 122.797 342.516 123.664C342.516 125.047 341.977 126.156 340.898 126.992C339.82 127.82 338.379 128.234 336.574 128.234C335.402 128.234 334.309 128.012 333.293 127.566C332.277 127.113 331.492 126.496 330.938 125.715C330.391 124.934 330.117 124.047 330.117 123.055H332.379C332.379 124.086 332.758 124.902 333.516 125.504C334.281 126.098 335.301 126.395 336.574 126.395C337.762 126.395 338.672 126.152 339.305 125.668C339.938 125.184 340.254 124.523 340.254 123.688C340.254 122.852 339.961 122.207 339.375 121.754C338.789 121.293 337.727 120.84 336.188 120.395ZM350.332 128.234C348.613 128.234 347.215 127.672 346.137 126.547C345.059 125.414 344.52 123.902 344.52 122.012V121.613C344.52 120.355 344.758 119.234 345.234 118.25C345.719 117.258 346.391 116.484 347.25 115.93C348.117 115.367 349.055 115.086 350.062 115.086C351.711 115.086 352.992 115.629 353.906 116.715C354.82 117.801 355.277 119.355 355.277 121.379V122.281H346.688C346.719 123.531 347.082 124.543 347.777 125.316C348.48 126.082 349.371 126.465 350.449 126.465C351.215 126.465 351.863 126.309 352.395 125.996C352.926 125.684 353.391 125.27 353.789 124.754L355.113 125.785C354.051 127.418 352.457 128.234 350.332 128.234ZM350.062 116.867C349.188 116.867 348.453 117.188 347.859 117.828C347.266 118.461 346.898 119.352 346.758 120.5H353.109V120.336C353.047 119.234 352.75 118.383 352.219 117.781C351.688 117.172 350.969 116.867 350.062 116.867ZM363.926 117.266C363.598 117.211 363.242 117.184 362.859 117.184C361.438 117.184 360.473 117.789 359.965 119V128H357.797V115.32H359.906L359.941 116.785C360.652 115.652 361.66 115.086 362.965 115.086C363.387 115.086 363.707 115.141 363.926 115.25V117.266ZM370.324 125.059L373.465 115.32H375.68L371.133 128H369.48L364.887 115.32H367.102L370.324 125.059ZM382.863 128.234C381.145 128.234 379.746 127.672 378.668 126.547C377.59 125.414 377.051 123.902 377.051 122.012V121.613C377.051 120.355 377.289 119.234 377.766 118.25C378.25 117.258 378.922 116.484 379.781 115.93C380.648 115.367 381.586 115.086 382.594 115.086C384.242 115.086 385.523 115.629 386.438 116.715C387.352 117.801 387.809 119.355 387.809 121.379V122.281H379.219C379.25 123.531 379.613 124.543 380.309 125.316C381.012 126.082 381.902 126.465 382.98 126.465C383.746 126.465 384.395 126.309 384.926 125.996C385.457 125.684 385.922 125.27 386.32 124.754L387.645 125.785C386.582 127.418 384.988 128.234 382.863 128.234ZM382.594 116.867C381.719 116.867 380.984 117.188 380.391 117.828C379.797 118.461 379.43 119.352 379.289 120.5H385.641V120.336C385.578 119.234 385.281 118.383 384.75 117.781C384.219 117.172 383.5 116.867 382.594 116.867ZM396.457 117.266C396.129 117.211 395.773 117.184 395.391 117.184C393.969 117.184 393.004 117.789 392.496 119V128H390.328V115.32H392.438L392.473 116.785C393.184 115.652 394.191 115.086 395.496 115.086C395.918 115.086 396.238 115.141 396.457 115.25V117.266ZM315.938 149.074C315.938 147.309 316.172 145.613 316.641 143.988C317.117 142.363 317.824 140.887 318.762 139.559C319.699 138.23 320.672 137.293 321.68 136.746L322.125 138.176C320.984 139.051 320.047 140.387 319.312 142.184C318.586 143.98 318.188 145.992 318.117 148.219L318.105 149.215C318.105 152.23 318.656 154.848 319.758 157.066C320.422 158.395 321.211 159.434 322.125 160.184L321.68 161.508C320.641 160.93 319.648 159.961 318.703 158.602C316.859 155.945 315.938 152.77 315.938 149.074ZM333.984 151.547H326.836L325.23 156H322.91L329.426 138.938H331.395L337.922 156H335.613L333.984 151.547ZM327.516 149.695H333.316L330.41 141.715L327.516 149.695ZM350.59 149.801C350.59 151.73 350.148 153.285 349.266 154.465C348.383 155.645 347.188 156.234 345.68 156.234C344.141 156.234 342.93 155.746 342.047 154.77V160.875H339.879V143.32H341.859L341.965 144.727C342.848 143.633 344.074 143.086 345.645 143.086C347.168 143.086 348.371 143.66 349.254 144.809C350.145 145.957 350.59 147.555 350.59 149.602V149.801ZM348.422 149.555C348.422 148.125 348.117 146.996 347.508 146.168C346.898 145.34 346.062 144.926 345 144.926C343.688 144.926 342.703 145.508 342.047 146.672V152.73C342.695 153.887 343.688 154.465 345.023 154.465C346.062 154.465 346.887 154.055 347.496 153.234C348.113 152.406 348.422 151.18 348.422 149.555ZM361.184 156C361.059 155.75 360.957 155.305 360.879 154.664C359.871 155.711 358.668 156.234 357.27 156.234C356.02 156.234 354.992 155.883 354.188 155.18C353.391 154.469 352.992 153.57 352.992 152.484C352.992 151.164 353.492 150.141 354.492 149.414C355.5 148.68 356.914 148.312 358.734 148.312H360.844V147.316C360.844 146.559 360.617 145.957 360.164 145.512C359.711 145.059 359.043 144.832 358.16 144.832C357.387 144.832 356.738 145.027 356.215 145.418C355.691 145.809 355.43 146.281 355.43 146.836H353.25C353.25 146.203 353.473 145.594 353.918 145.008C354.371 144.414 354.98 143.945 355.746 143.602C356.52 143.258 357.367 143.086 358.289 143.086C359.75 143.086 360.895 143.453 361.723 144.188C362.551 144.914 362.98 145.918 363.012 147.199V153.035C363.012 154.199 363.16 155.125 363.457 155.812V156H361.184ZM357.586 154.348C358.266 154.348 358.91 154.172 359.52 153.82C360.129 153.469 360.57 153.012 360.844 152.449V149.848H359.145C356.488 149.848 355.16 150.625 355.16 152.18C355.16 152.859 355.387 153.391 355.84 153.773C356.293 154.156 356.875 154.348 357.586 154.348ZM371.496 154.465C372.27 154.465 372.945 154.23 373.523 153.762C374.102 153.293 374.422 152.707 374.484 152.004H376.535C376.496 152.73 376.246 153.422 375.785 154.078C375.324 154.734 374.707 155.258 373.934 155.648C373.168 156.039 372.355 156.234 371.496 156.234C369.77 156.234 368.395 155.66 367.371 154.512C366.355 153.355 365.848 151.777 365.848 149.777V149.414C365.848 148.18 366.074 147.082 366.527 146.121C366.98 145.16 367.629 144.414 368.473 143.883C369.324 143.352 370.328 143.086 371.484 143.086C372.906 143.086 374.086 143.512 375.023 144.363C375.969 145.215 376.473 146.32 376.535 147.68H374.484C374.422 146.859 374.109 146.188 373.547 145.664C372.992 145.133 372.305 144.867 371.484 144.867C370.383 144.867 369.527 145.266 368.918 146.062C368.316 146.852 368.016 147.996 368.016 149.496V149.906C368.016 151.367 368.316 152.492 368.918 153.281C369.52 154.07 370.379 154.465 371.496 154.465ZM381.141 144.855C382.102 143.676 383.352 143.086 384.891 143.086C387.57 143.086 388.922 144.598 388.945 147.621V156H386.777V147.609C386.77 146.695 386.559 146.02 386.145 145.582C385.738 145.145 385.102 144.926 384.234 144.926C383.531 144.926 382.914 145.113 382.383 145.488C381.852 145.863 381.438 146.355 381.141 146.965V156H378.973V138H381.141V144.855ZM397.453 156.234C395.734 156.234 394.336 155.672 393.258 154.547C392.18 153.414 391.641 151.902 391.641 150.012V149.613C391.641 148.355 391.879 147.234 392.355 146.25C392.84 145.258 393.512 144.484 394.371 143.93C395.238 143.367 396.176 143.086 397.184 143.086C398.832 143.086 400.113 143.629 401.027 144.715C401.941 145.801 402.398 147.355 402.398 149.379V150.281H393.809C393.84 151.531 394.203 152.543 394.898 153.316C395.602 154.082 396.492 154.465 397.57 154.465C398.336 154.465 398.984 154.309 399.516 153.996C400.047 153.684 400.512 153.27 400.91 152.754L402.234 153.785C401.172 155.418 399.578 156.234 397.453 156.234ZM397.184 144.867C396.309 144.867 395.574 145.188 394.98 145.828C394.387 146.461 394.02 147.352 393.879 148.5H400.23V148.336C400.168 147.234 399.871 146.383 399.34 145.781C398.809 145.172 398.09 144.867 397.184 144.867ZM409.922 149.191C409.922 150.934 409.691 152.605 409.23 154.207C408.777 155.801 408.078 157.273 407.133 158.625C406.195 159.977 405.211 160.938 404.18 161.508L403.723 160.184C404.926 159.262 405.891 157.832 406.617 155.895C407.352 153.949 407.727 151.793 407.742 149.426V149.051C407.742 147.41 407.57 145.887 407.227 144.48C406.883 143.066 406.402 141.801 405.785 140.684C405.176 139.566 404.488 138.695 403.723 138.07L404.18 136.746C405.211 137.316 406.191 138.27 407.121 139.605C408.059 140.941 408.758 142.414 409.219 144.023C409.688 145.633 409.922 147.355 409.922 149.191Z" fill="#4B4B4B"/>
<path d="M86.094 70.7311V70.6769C78.4216 76.8467 65.6327 80.7452 50.5471 80.7452C37.3681 80.7452 25.9429 77.7694 18.1498 72.9035C17.0438 72.2033 16.0045 71.4617 15.043 70.6776V70.7092C15.0295 70.6982 15.0142 70.6881 15.0003 70.6769V87.0361C15.0003 96.3896 30.9462 104 50.5473 104C70.1484 104 86.0942 96.3896 86.0942 87.0361V76.9962L86.1209 70.711C86.112 70.7179 86.1028 70.7241 86.094 70.7311Z" fill="#4B4B4B"/>
<path d="M50.5471 73.5775C70.1482 73.5775 86.0941 65.9669 86.0941 56.6138V55.6917V48.8793V45.9156L86.1207 44.0606C86.112 44.0675 86.1026 44.0737 86.0941 44.0807V44.0272C78.4216 50.197 65.6327 54.0955 50.5471 54.0955C37.374 54.0955 25.9531 51.122 18.1601 46.2597C17.0504 45.5573 16.0076 44.8135 15.0428 44.027V44.0593C15.0293 44.0483 15.014 44.0382 15.0002 44.027V48.8791V55.6915V56.6136C15.0002 65.9671 30.946 73.5775 50.5471 73.5775Z" fill="#4B4B4B"/>
<path d="M50.5471 46.9278C70.1482 46.9278 86.0941 39.3174 86.0941 29.9641C86.0941 29.6962 86.0358 29.4355 86.0102 29.1708C85.8616 27.6532 85.327 26.1831 84.3931 24.7947C79.7991 17.962 66.3703 13 50.5471 13C34.7239 13 21.2952 17.962 16.7015 24.7945C15.7673 26.1829 15.2327 27.653 15.0844 29.1707C15.0583 29.4351 15 29.696 15 29.9639C15.0002 39.3172 30.946 46.9278 50.5471 46.9278Z" fill="#4B4B4B"/>
<path d="M37.1289 128V110.938H41.9453C43.4297 110.938 44.7422 111.266 45.8828 111.922C47.0234 112.578 47.9023 113.512 48.5195 114.723C49.1445 115.934 49.4609 117.324 49.4688 118.895V119.984C49.4688 121.594 49.1562 123.004 48.5312 124.215C47.9141 125.426 47.0273 126.355 45.8711 127.004C44.7227 127.652 43.3828 127.984 41.8516 128H37.1289ZM39.3789 112.789V126.16H41.7461C43.4805 126.16 44.8281 125.621 45.7891 124.543C46.7578 123.465 47.2422 121.93 47.2422 119.938V118.941C47.2422 117.004 46.7852 115.5 45.8711 114.43C44.9648 113.352 43.6758 112.805 42.0039 112.789H39.3789ZM52.8789 128V110.938H58.457C60.3086 110.938 61.6992 111.32 62.6289 112.086C63.5664 112.852 64.0352 113.984 64.0352 115.484C64.0352 116.281 63.8086 116.988 63.3555 117.605C62.9023 118.215 62.2852 118.688 61.5039 119.023C62.4258 119.281 63.1523 119.773 63.6836 120.5C64.2227 121.219 64.4922 122.078 64.4922 123.078C64.4922 124.609 63.9961 125.812 63.0039 126.688C62.0117 127.562 60.6094 128 58.7969 128H52.8789ZM55.1289 120.02V126.16H58.8438C59.8906 126.16 60.7148 125.891 61.3164 125.352C61.9258 124.805 62.2305 124.055 62.2305 123.102C62.2305 121.047 61.1133 120.02 58.8789 120.02H55.1289ZM55.1289 118.215H58.5273C59.5117 118.215 60.2969 117.969 60.8828 117.477C61.4766 116.984 61.7734 116.316 61.7734 115.473C61.7734 114.535 61.5 113.855 60.9531 113.434C60.4062 113.004 59.5742 112.789 58.457 112.789H55.1289V118.215ZM5.79297 149.074C5.79297 147.309 6.02734 145.613 6.49609 143.988C6.97266 142.363 7.67969 140.887 8.61719 139.559C9.55469 138.23 10.5273 137.293 11.5352 136.746L11.9805 138.176C10.8398 139.051 9.90234 140.387 9.16797 142.184C8.44141 143.98 8.04297 145.992 7.97266 148.219L7.96094 149.215C7.96094 152.23 8.51172 154.848 9.61328 157.066C10.2773 158.395 11.0664 159.434 11.9805 160.184L11.5352 161.508C10.4961 160.93 9.50391 159.961 8.55859 158.602C6.71484 155.945 5.79297 152.77 5.79297 149.074ZM17.3242 138.938L22.9023 152.859L28.4805 138.938H31.3984V156H29.1484V149.355L29.3594 142.184L23.7578 156H22.0352L16.4453 142.219L16.668 149.355V156H14.418V138.938H17.3242ZM39.1797 152.824L42.1328 143.32H44.4531L39.3555 157.957C38.5664 160.066 37.3125 161.121 35.5938 161.121L35.1836 161.086L34.375 160.934V159.176L34.9609 159.223C35.6953 159.223 36.2656 159.074 36.6719 158.777C37.0859 158.48 37.4258 157.938 37.6914 157.148L38.1719 155.859L33.6484 143.32H36.0156L39.1797 152.824ZM51.7656 148.395C49.8359 147.84 48.4297 147.16 47.5469 146.355C46.6719 145.543 46.2344 144.543 46.2344 143.355C46.2344 142.012 46.7695 140.902 47.8398 140.027C48.918 139.145 50.3164 138.703 52.0352 138.703C53.207 138.703 54.25 138.93 55.1641 139.383C56.0859 139.836 56.7969 140.461 57.2969 141.258C57.8047 142.055 58.0586 142.926 58.0586 143.871H55.7969C55.7969 142.84 55.4688 142.031 54.8125 141.445C54.1562 140.852 53.2305 140.555 52.0352 140.555C50.9258 140.555 50.0586 140.801 49.4336 141.293C48.8164 141.777 48.5078 142.453 48.5078 143.32C48.5078 144.016 48.8008 144.605 49.3867 145.09C49.9805 145.566 50.9844 146.004 52.3984 146.402C53.8203 146.801 54.9297 147.242 55.7266 147.727C56.5312 148.203 57.125 148.762 57.5078 149.402C57.8984 150.043 58.0938 150.797 58.0938 151.664C58.0938 153.047 57.5547 154.156 56.4766 154.992C55.3984 155.82 53.957 156.234 52.1523 156.234C50.9805 156.234 49.8867 156.012 48.8711 155.566C47.8555 155.113 47.0703 154.496 46.5156 153.715C45.9688 152.934 45.6953 152.047 45.6953 151.055H47.957C47.957 152.086 48.3359 152.902 49.0938 153.504C49.8594 154.098 50.8789 154.395 52.1523 154.395C53.3398 154.395 54.25 154.152 54.8828 153.668C55.5156 153.184 55.832 152.523 55.832 151.688C55.832 150.852 55.5391 150.207 54.9531 149.754C54.3672 149.293 53.3047 148.84 51.7656 148.395ZM74.0195 148.02C74.0195 149.668 73.7578 151.09 73.2344 152.285C72.7109 153.473 71.9766 154.402 71.0312 155.074L74.0781 157.465L72.543 158.883L68.9453 156.023C68.3828 156.164 67.7891 156.234 67.1641 156.234C65.8203 156.234 64.6289 155.906 63.5898 155.25C62.5508 154.586 61.7422 153.645 61.1641 152.426C60.5938 151.199 60.3008 149.781 60.2852 148.172V146.941C60.2852 145.301 60.5703 143.852 61.1406 142.594C61.7109 141.336 62.5156 140.375 63.5547 139.711C64.6016 139.039 65.7969 138.703 67.1406 138.703C68.5156 138.703 69.7227 139.035 70.7617 139.699C71.8086 140.363 72.6133 141.32 73.1758 142.57C73.7383 143.812 74.0195 145.266 74.0195 146.93V148.02ZM71.7695 146.918C71.7695 144.91 71.3672 143.363 70.5625 142.277C69.7656 141.184 68.625 140.637 67.1406 140.637C65.7266 140.637 64.6094 141.18 63.7891 142.266C62.9766 143.344 62.5586 144.844 62.5352 146.766V148.02C62.5352 149.973 62.9414 151.512 63.7539 152.637C64.5742 153.762 65.7109 154.324 67.1641 154.324C68.6172 154.324 69.7422 153.797 70.5391 152.742C71.3359 151.68 71.7461 150.16 71.7695 148.184V146.918ZM79.75 154.16H87.8359V156H77.4883V138.938H79.75V154.16ZM95.0664 149.191C95.0664 150.934 94.8359 152.605 94.375 154.207C93.9219 155.801 93.2227 157.273 92.2773 158.625C91.3398 159.977 90.3555 160.938 89.3242 161.508L88.8672 160.184C90.0703 159.262 91.0352 157.832 91.7617 155.895C92.4961 153.949 92.8711 151.793 92.8867 149.426V149.051C92.8867 147.41 92.7148 145.887 92.3711 144.48C92.0273 143.066 91.5469 141.801 90.9297 140.684C90.3203 139.566 89.6328 138.695 88.8672 138.07L89.3242 136.746C90.3555 137.316 91.3359 138.27 92.2656 139.605C93.2031 140.941 93.9023 142.414 94.3633 144.023C94.832 145.633 95.0664 147.355 95.0664 149.191Z" fill="#4B4B4B"/>
<path d="M221.73 274H186.155C180.547 274 176 278.547 176 284.155V345.162C176 354.136 183.274 361.41 192.248 361.41H215.637C224.611 361.41 231.885 354.136 231.885 345.162V284.155C231.885 278.547 227.339 274 221.73 274ZM203.943 356.157C202.557 356.157 201.435 355.035 201.435 353.649C201.435 352.264 202.557 351.142 203.943 351.142C205.328 351.142 206.45 352.264 206.45 353.649C206.45 355.035 205.328 356.157 203.943 356.157ZM197.494 277.821H210.389C211.116 277.821 211.704 278.411 211.704 279.136C211.704 279.86 211.116 280.45 210.389 280.45H197.494C196.768 280.45 196.18 279.861 196.18 279.136C196.18 278.411 196.768 277.821 197.494 277.821ZM181.732 345.162V286.18H226.154V345.162C226.154 345.818 226.085 346.458 225.97 347.081H181.915C181.8 346.458 181.732 345.818 181.732 345.162Z" fill="#4B4B4B"/>
<path d="M149.566 350.514L138.792 336.966V279.991C138.792 277.235 136.556 275 133.8 275H45.1993C42.4433 275 40.2093 277.235 40.2093 279.991V336.966L29.4341 350.514C29.1531 350.867 29 351.305 29 351.758V357.755C29 359.955 30.7824 361.737 32.9819 361.737H146.018C148.218 361.737 150 359.955 150 357.755V351.758C150 351.305 149.848 350.867 149.566 350.514ZM47.2507 282.043H131.749V329.924H47.2507V282.043ZM100.872 357.001H78.1277V350.98H100.872V357.001Z" fill="#4B4B4B"/>
<path d="M133.969 388.586C133.758 390.391 133.09 391.785 131.965 392.77C130.848 393.746 129.359 394.234 127.5 394.234C125.484 394.234 123.867 393.512 122.648 392.066C121.438 390.621 120.832 388.688 120.832 386.266V384.625C120.832 383.039 121.113 381.645 121.676 380.441C122.246 379.238 123.051 378.316 124.09 377.676C125.129 377.027 126.332 376.703 127.699 376.703C129.512 376.703 130.965 377.211 132.059 378.227C133.152 379.234 133.789 380.633 133.969 382.422H131.707C131.512 381.062 131.086 380.078 130.43 379.469C129.781 378.859 128.871 378.555 127.699 378.555C126.262 378.555 125.133 379.086 124.312 380.148C123.5 381.211 123.094 382.723 123.094 384.684V386.336C123.094 388.188 123.48 389.66 124.254 390.754C125.027 391.848 126.109 392.395 127.5 392.395C128.75 392.395 129.707 392.113 130.371 391.551C131.043 390.98 131.488 389.992 131.707 388.586H133.969ZM139.066 394H136.898V376H139.066V394ZM144.902 394H142.734V381.32H144.902V394ZM142.559 377.957C142.559 377.605 142.664 377.309 142.875 377.066C143.094 376.824 143.414 376.703 143.836 376.703C144.258 376.703 144.578 376.824 144.797 377.066C145.016 377.309 145.125 377.605 145.125 377.957C145.125 378.309 145.016 378.602 144.797 378.836C144.578 379.07 144.258 379.188 143.836 379.188C143.414 379.188 143.094 379.07 142.875 378.836C142.664 378.602 142.559 378.309 142.559 377.957ZM153.645 394.234C151.926 394.234 150.527 393.672 149.449 392.547C148.371 391.414 147.832 389.902 147.832 388.012V387.613C147.832 386.355 148.07 385.234 148.547 384.25C149.031 383.258 149.703 382.484 150.562 381.93C151.43 381.367 152.367 381.086 153.375 381.086C155.023 381.086 156.305 381.629 157.219 382.715C158.133 383.801 158.59 385.355 158.59 387.379V388.281H150C150.031 389.531 150.395 390.543 151.09 391.316C151.793 392.082 152.684 392.465 153.762 392.465C154.527 392.465 155.176 392.309 155.707 391.996C156.238 391.684 156.703 391.27 157.102 390.754L158.426 391.785C157.363 393.418 155.77 394.234 153.645 394.234ZM153.375 382.867C152.5 382.867 151.766 383.188 151.172 383.828C150.578 384.461 150.211 385.352 150.07 386.5H156.422V386.336C156.359 385.234 156.062 384.383 155.531 383.781C155 383.172 154.281 382.867 153.375 382.867ZM163.16 381.32L163.23 382.914C164.199 381.695 165.465 381.086 167.027 381.086C169.707 381.086 171.059 382.598 171.082 385.621V394H168.914V385.609C168.906 384.695 168.695 384.02 168.281 383.582C167.875 383.145 167.238 382.926 166.371 382.926C165.668 382.926 165.051 383.113 164.52 383.488C163.988 383.863 163.574 384.355 163.277 384.965V394H161.109V381.32H163.16ZM177.293 378.25V381.32H179.66V382.996H177.293V390.859C177.293 391.367 177.398 391.75 177.609 392.008C177.82 392.258 178.18 392.383 178.688 392.383C178.938 392.383 179.281 392.336 179.719 392.242V394C179.148 394.156 178.594 394.234 178.055 394.234C177.086 394.234 176.355 393.941 175.863 393.355C175.371 392.77 175.125 391.938 175.125 390.859V382.996H172.816V381.32H175.125V378.25H177.293Z" fill="#4B4B4B"/>
<rect x="594" y="13" width="97" height="97" fill="#4B4B4B"/>
<path d="M628.892 65.2324C628.628 67.4883 627.793 69.2314 626.387 70.4619C624.99 71.6826 623.13 72.293 620.806 72.293C618.286 72.293 616.265 71.3896 614.741 69.583C613.228 67.7764 612.471 65.3594 612.471 62.332V60.2812C612.471 58.2988 612.822 56.5557 613.525 55.0518C614.238 53.5479 615.244 52.3955 616.543 51.5947C617.842 50.7842 619.346 50.3789 621.055 50.3789C623.32 50.3789 625.137 51.0137 626.504 52.2832C627.871 53.543 628.667 55.291 628.892 57.5273H626.064C625.82 55.8281 625.288 54.5977 624.468 53.8359C623.657 53.0742 622.52 52.6934 621.055 52.6934C619.258 52.6934 617.847 53.3574 616.821 54.6855C615.806 56.0137 615.298 57.9033 615.298 60.3545V62.4199C615.298 64.7344 615.781 66.5752 616.748 67.9424C617.715 69.3096 619.067 69.9932 620.806 69.9932C622.368 69.9932 623.564 69.6416 624.395 68.9385C625.234 68.2256 625.791 66.9902 626.064 65.2324H628.892ZM636.377 50.6719L643.35 68.0742L650.322 50.6719H653.97V72H651.157V63.6943L651.421 54.7295L644.419 72H642.266L635.278 54.7734L635.557 63.6943V72H632.744V50.6719H636.377ZM665.22 62.4932C662.808 61.7998 661.05 60.9502 659.946 59.9443C658.853 58.9287 658.306 57.6787 658.306 56.1943C658.306 54.5146 658.975 53.1279 660.312 52.0342C661.66 50.9307 663.408 50.3789 665.557 50.3789C667.021 50.3789 668.325 50.6621 669.468 51.2285C670.62 51.7949 671.509 52.5762 672.134 53.5723C672.769 54.5684 673.086 55.6572 673.086 56.8389H670.259C670.259 55.5498 669.849 54.5391 669.028 53.8066C668.208 53.0645 667.051 52.6934 665.557 52.6934C664.17 52.6934 663.086 53.001 662.305 53.6162C661.533 54.2217 661.147 55.0664 661.147 56.1504C661.147 57.0195 661.514 57.7568 662.246 58.3623C662.988 58.958 664.243 59.5049 666.011 60.0029C667.788 60.501 669.175 61.0527 670.171 61.6582C671.177 62.2539 671.919 62.9521 672.397 63.7529C672.886 64.5537 673.13 65.4961 673.13 66.5801C673.13 68.3086 672.456 69.6953 671.108 70.7402C669.761 71.7754 667.959 72.293 665.703 72.293C664.238 72.293 662.871 72.0146 661.602 71.458C660.332 70.8916 659.351 70.1201 658.657 69.1436C657.974 68.167 657.632 67.0586 657.632 65.8184H660.459C660.459 67.1074 660.933 68.1279 661.88 68.8799C662.837 69.6221 664.111 69.9932 665.703 69.9932C667.188 69.9932 668.325 69.6904 669.116 69.085C669.907 68.4795 670.303 67.6543 670.303 66.6094C670.303 65.5645 669.937 64.7588 669.204 64.1924C668.472 63.6162 667.144 63.0498 665.22 62.4932Z" fill="white"/>
<path d="M720.73 273H685.155C679.547 273 675 277.547 675 283.155V344.162C675 353.136 682.274 360.41 691.248 360.41H714.637C723.611 360.41 730.885 353.136 730.885 344.162V283.155C730.885 277.547 726.339 273 720.73 273ZM702.943 355.157C701.557 355.157 700.435 354.035 700.435 352.649C700.435 351.264 701.557 350.142 702.943 350.142C704.328 350.142 705.45 351.264 705.45 352.649C705.45 354.035 704.328 355.157 702.943 355.157ZM696.494 276.821H709.389C710.116 276.821 710.704 277.411 710.704 278.136C710.704 278.86 710.116 279.45 709.389 279.45H696.494C695.768 279.45 695.18 278.861 695.18 278.136C695.18 277.411 695.768 276.821 696.494 276.821ZM680.732 344.162V285.18H725.154V344.162C725.154 344.818 725.085 345.458 724.97 346.081H680.915C680.8 345.458 680.732 344.818 680.732 344.162Z" fill="#4B4B4B"/>
<path d="M648.566 349.514L637.792 335.966V278.991C637.792 276.235 635.556 274 632.8 274H544.199C541.443 274 539.209 276.235 539.209 278.991V335.966L528.434 349.514C528.153 349.867 528 350.305 528 350.758V356.755C528 358.955 529.782 360.737 531.982 360.737H645.018C647.218 360.737 649 358.955 649 356.755V350.758C649 350.305 648.848 349.867 648.566 349.514ZM546.251 281.043H630.749V328.924H546.251V281.043ZM599.872 356.001H577.128V349.98H599.872V356.001Z" fill="#4B4B4B"/>
<path d="M619.738 388.547H612.59L610.984 393H608.664L615.18 375.938H617.148L623.676 393H621.367L619.738 388.547ZM613.27 386.695H619.07L616.164 378.715L613.27 386.695ZM625.105 386.555C625.105 384.609 625.566 383.047 626.488 381.867C627.41 380.68 628.617 380.086 630.109 380.086C631.594 380.086 632.77 380.594 633.637 381.609V375H635.805V393H633.812L633.707 391.641C632.84 392.703 631.633 393.234 630.086 393.234C628.617 393.234 627.418 392.633 626.488 391.43C625.566 390.227 625.105 388.656 625.105 386.719V386.555ZM627.273 386.801C627.273 388.238 627.57 389.363 628.164 390.176C628.758 390.988 629.578 391.395 630.625 391.395C632 391.395 633.004 390.777 633.637 389.543V383.719C632.988 382.523 631.992 381.926 630.648 381.926C629.586 381.926 628.758 382.336 628.164 383.156C627.57 383.977 627.273 385.191 627.273 386.801ZM641.219 380.32L641.277 381.727C642.207 380.633 643.461 380.086 645.039 380.086C646.812 380.086 648.02 380.766 648.66 382.125C649.082 381.516 649.629 381.023 650.301 380.648C650.98 380.273 651.781 380.086 652.703 380.086C655.484 380.086 656.898 381.559 656.945 384.504V393H654.777V384.633C654.777 383.727 654.57 383.051 654.156 382.605C653.742 382.152 653.047 381.926 652.07 381.926C651.266 381.926 650.598 382.168 650.066 382.652C649.535 383.129 649.227 383.773 649.141 384.586V393H646.961V384.691C646.961 382.848 646.059 381.926 644.254 381.926C642.832 381.926 641.859 382.531 641.336 383.742V393H639.168V380.32H641.219ZM662.582 393H660.414V380.32H662.582V393ZM660.238 376.957C660.238 376.605 660.344 376.309 660.555 376.066C660.773 375.824 661.094 375.703 661.516 375.703C661.938 375.703 662.258 375.824 662.477 376.066C662.695 376.309 662.805 376.605 662.805 376.957C662.805 377.309 662.695 377.602 662.477 377.836C662.258 378.07 661.938 378.188 661.516 378.188C661.094 378.188 660.773 378.07 660.555 377.836C660.344 377.602 660.238 377.309 660.238 376.957ZM668.113 380.32L668.184 381.914C669.152 380.695 670.418 380.086 671.98 380.086C674.66 380.086 676.012 381.598 676.035 384.621V393H673.867V384.609C673.859 383.695 673.648 383.02 673.234 382.582C672.828 382.145 672.191 381.926 671.324 381.926C670.621 381.926 670.004 382.113 669.473 382.488C668.941 382.863 668.527 383.355 668.23 383.965V393H666.062V380.32H668.113Z" fill="#4B4B4B"/>
<path d="M644.061 118.939C643.475 118.354 642.525 118.354 641.939 118.939L632.393 128.485C631.808 129.071 631.808 130.021 632.393 130.607C632.979 131.192 633.929 131.192 634.515 130.607L643 122.121L651.485 130.607C652.071 131.192 653.021 131.192 653.607 130.607C654.192 130.021 654.192 129.071 653.607 128.485L644.061 118.939ZM644.5 257L644.5 120L641.5 120L641.5 257L644.5 257Z" fill="#4B4B4B"/>
<path d="M663.136 194.096C663.688 192.32 664.072 189.56 664.168 187.688L662.848 187.52C662.68 189.416 662.296 192.032 661.768 193.64L663.136 194.096ZM664.696 204.824H666.352V182.912H664.696V204.824ZM666.544 186.896C667.048 188.024 667.6 189.512 667.792 190.424L669.04 189.8C668.824 188.936 668.248 187.496 667.72 186.416L666.544 186.896ZM671.704 199.76V197.936H680.344V199.76H671.704ZM680.344 194.792V196.592H671.704V194.792H680.344ZM682.048 193.4H670.024V204.824H671.704V201.08H680.344V202.808C680.344 203.12 680.224 203.216 679.888 203.216C679.6 203.24 678.448 203.24 677.248 203.192C677.464 203.648 677.656 204.296 677.752 204.728C679.456 204.752 680.512 204.728 681.184 204.464C681.856 204.2 682.048 203.744 682.048 202.832V193.4ZM676.912 190.664V188.984H682.624V187.688H676.912V186.152H683.224V184.784H676.912V182.912H675.16V184.784H669.04V186.152H675.16V187.688H669.616V188.984H675.16V190.664H668.32V192.032H683.896V190.664H676.912ZM693.544 194.24H689.392L690.232 194C690.112 193.184 689.656 191.84 689.128 190.832H693.808C693.544 191.768 693.016 193.112 692.632 193.976L693.544 194.24ZM692.272 186.92H695.776V185.384H692.272V182.96H690.592V185.384H686.944V186.92H690.592V189.296H686.08V190.832H688.936L687.76 191.144C688.216 192.104 688.624 193.376 688.768 194.24H686.416V195.8H690.592V198.392H686.656V199.904H690.592V204.776H692.272V199.904H696.088V198.392H692.272V195.8H696.4V194.24H694.024C694.432 193.4 694.912 192.248 695.344 191.144L694.192 190.832H696.688V189.296H692.272V186.92ZM699.088 193.592H699.304C700.024 196.088 701.056 198.416 702.4 200.384C701.464 201.656 700.36 202.76 699.088 203.6V193.592ZM705.4 193.592C704.968 195.44 704.272 197.264 703.336 198.896C702.28 197.312 701.416 195.488 700.816 193.592H705.4ZM706.216 192.032L705.904 192.104H699.088V185.648H705.112V188.6C705.112 188.888 705.016 188.96 704.632 188.984C704.272 189.032 703.024 189.032 701.536 188.984C701.776 189.416 702.016 190.04 702.088 190.52C703.912 190.52 705.112 190.496 705.832 190.256C706.6 189.992 706.768 189.512 706.768 188.624V184.016H697.456V204.848H699.088V203.696C699.496 204.032 699.976 204.512 700.216 204.872C701.44 204.032 702.52 202.976 703.432 201.776C704.488 203.024 705.664 204.08 706.984 204.824C707.272 204.368 707.824 203.72 708.208 203.384C706.792 202.688 705.52 201.632 704.416 200.336C705.856 198.032 706.816 195.32 707.32 192.44L706.216 192.032ZM714.52 184.376V186.152H720.424C720.472 187.064 720.568 188.12 720.736 189.224L719.68 189.056C718.216 195.776 715.264 200.6 709.96 203.36C710.44 203.672 711.232 204.416 711.568 204.776C716.344 201.968 719.368 197.6 721.144 191.384C722.224 195.92 724.768 201.176 730.672 204.752C730.984 204.32 731.704 203.552 732.112 203.264C722.704 197.672 722.152 188.624 722.152 184.376H714.52ZM744.712 188.144C744.712 187.784 744.712 187.448 744.712 187.112V182.96H742.864V187.112C742.864 187.448 742.864 187.784 742.864 188.144H735.088V189.92H742.768C742.408 194.408 740.872 199.664 734.368 203.528C734.8 203.816 735.448 204.512 735.736 204.944C742.696 200.696 744.28 194.888 744.616 189.92H752.8C752.344 198.368 751.816 201.752 750.952 202.568C750.664 202.856 750.352 202.928 749.848 202.928C749.248 202.928 747.712 202.904 746.08 202.76C746.44 203.288 746.656 204.056 746.68 204.584C748.144 204.68 749.68 204.728 750.52 204.656C751.432 204.56 752.008 204.368 752.56 203.696C753.616 202.496 754.12 198.92 754.648 189.08C754.672 188.816 754.696 188.144 754.696 188.144H744.712Z" fill="#4B4B4B"/>
<path d="M435.939 56.9393C435.354 57.5251 435.354 58.4749 435.939 59.0607L445.485 68.6066C446.071 69.1924 447.021 69.1924 447.607 68.6066C448.192 68.0208 448.192 67.0711 447.607 66.4853L439.121 58L447.607 49.5147C448.192 48.9289 448.192 47.9792 447.607 47.3934C447.021 46.8076 446.071 46.8076 445.485 47.3934L435.939 56.9393ZM575 56.5L437 56.5V59.5L575 59.5V56.5Z" fill="#4B4B4B"/>
<path d="M460.136 32.096C460.688 30.32 461.072 27.56 461.168 25.688L459.848 25.52C459.68 27.416 459.296 30.032 458.768 31.64L460.136 32.096ZM461.696 42.824H463.352V20.912H461.696V42.824ZM463.544 24.896C464.048 26.024 464.6 27.512 464.792 28.424L466.04 27.8C465.824 26.936 465.248 25.496 464.72 24.416L463.544 24.896ZM468.704 37.76V35.936H477.344V37.76H468.704ZM477.344 32.792V34.592H468.704V32.792H477.344ZM479.048 31.4H467.024V42.824H468.704V39.08H477.344V40.808C477.344 41.12 477.224 41.216 476.888 41.216C476.6 41.24 475.448 41.24 474.248 41.192C474.464 41.648 474.656 42.296 474.752 42.728C476.456 42.752 477.512 42.728 478.184 42.464C478.856 42.2 479.048 41.744 479.048 40.832V31.4ZM473.912 28.664V26.984H479.624V25.688H473.912V24.152H480.224V22.784H473.912V20.912H472.16V22.784H466.04V24.152H472.16V25.688H466.616V26.984H472.16V28.664H465.32V30.032H480.896V28.664H473.912ZM490.544 32.24H486.392L487.232 32C487.112 31.184 486.656 29.84 486.128 28.832H490.808C490.544 29.768 490.016 31.112 489.632 31.976L490.544 32.24ZM489.272 24.92H492.776V23.384H489.272V20.96H487.592V23.384H483.944V24.92H487.592V27.296H483.08V28.832H485.936L484.76 29.144C485.216 30.104 485.624 31.376 485.768 32.24H483.416V33.8H487.592V36.392H483.656V37.904H487.592V42.776H489.272V37.904H493.088V36.392H489.272V33.8H493.4V32.24H491.024C491.432 31.4 491.912 30.248 492.344 29.144L491.192 28.832H493.688V27.296H489.272V24.92ZM496.088 31.592H496.304C497.024 34.088 498.056 36.416 499.4 38.384C498.464 39.656 497.36 40.76 496.088 41.6V31.592ZM502.4 31.592C501.968 33.44 501.272 35.264 500.336 36.896C499.28 35.312 498.416 33.488 497.816 31.592H502.4ZM503.216 30.032L502.904 30.104H496.088V23.648H502.112V26.6C502.112 26.888 502.016 26.96 501.632 26.984C501.272 27.032 500.024 27.032 498.536 26.984C498.776 27.416 499.016 28.04 499.088 28.52C500.912 28.52 502.112 28.496 502.832 28.256C503.6 27.992 503.768 27.512 503.768 26.624V22.016H494.456V42.848H496.088V41.696C496.496 42.032 496.976 42.512 497.216 42.872C498.44 42.032 499.52 40.976 500.432 39.776C501.488 41.024 502.664 42.08 503.984 42.824C504.272 42.368 504.824 41.72 505.208 41.384C503.792 40.688 502.52 39.632 501.416 38.336C502.856 36.032 503.816 33.32 504.32 30.44L503.216 30.032ZM511.52 33.56V31.136H517.232V32.096C517.232 32.576 517.232 33.08 517.184 33.56H511.52ZM511.52 27.32H517.232V29.72H511.52V27.32ZM525.104 27.32V29.72H519.056V27.32H525.104ZM525.104 33.56H519.008C519.032 33.104 519.056 32.6 519.056 32.12V31.136H525.104V33.56ZM526.856 35.048V25.832H519.056V23.816H528.368V22.208H507.632V23.816H517.232V25.832H509.816V35.048H516.944C516.656 36.2 516.104 37.28 515 38.216C513.872 37.472 512.912 36.488 512.096 35.24L510.608 35.84C511.424 37.232 512.408 38.336 513.56 39.224C512.096 40.064 510.056 40.736 507.2 41.288C507.584 41.696 508.064 42.44 508.256 42.848C511.376 42.2 513.608 41.312 515.216 40.256C518.48 41.984 522.848 42.512 528.392 42.752C528.488 42.176 528.824 41.432 529.136 41C523.808 40.856 519.68 40.496 516.656 39.128C517.856 37.904 518.504 36.536 518.792 35.048H526.856ZM542.072 23.432H537.704V21.008H535.976V23.432H531.56V24.92H542.072V23.432ZM539.312 28.76C539.768 27.896 540.248 26.552 540.704 25.352L539.072 24.968C538.856 26 538.304 27.488 537.872 28.448L539.312 28.76ZM535.424 28.424C535.304 27.512 534.896 26.096 534.392 25.016L533 25.376C533.456 26.456 533.84 27.896 533.936 28.832L535.424 28.424ZM541.496 38.048C540.944 37.544 538.616 35.648 537.704 34.976V34.4H542.168V32.888H537.704V30.368H542.36V28.856H531.224V30.368H535.976V32.888H531.296V34.4H535.592C534.392 36.512 532.496 38.672 530.768 39.8C531.152 40.112 531.68 40.688 531.968 41.096C533.312 40.04 534.8 38.336 535.976 36.488V42.776H537.704V36.68C538.712 37.592 539.936 38.768 540.44 39.368L541.496 38.048ZM552.944 28.952H544.928V24.68C547.592 24.152 550.592 23.432 552.632 22.52L551.192 21.2C549.656 21.968 546.968 22.736 544.52 23.264L543.224 22.856V31.208C543.224 34.568 542.888 38.72 539.84 41.696C540.248 41.936 540.896 42.56 541.112 42.944C544.472 39.608 544.928 34.808 544.928 31.232V30.632H548.504V42.68H550.256V30.632H552.944V28.952Z" fill="#4B4B4B"/>
<path d="M107.939 37.9393C107.354 38.5251 107.354 39.4749 107.939 40.0607L117.485 49.6066C118.071 50.1924 119.021 50.1924 119.607 49.6066C120.192 49.0208 120.192 48.0711 119.607 47.4853L111.121 39L119.607 30.5147C120.192 29.9289 120.192 28.9792 119.607 28.3934C119.021 27.8076 118.071 27.8076 117.485 28.3934L107.939 37.9393ZM284 37.5L109 37.5V40.5L284 40.5V37.5Z" fill="#4B4B4B"/>
<path d="M132.136 13.096C132.688 11.32 133.072 8.56 133.168 6.688L131.848 6.52C131.68 8.416 131.296 11.032 130.768 12.64L132.136 13.096ZM133.696 23.824H135.352V1.912H133.696V23.824ZM135.544 5.896C136.048 7.024 136.6 8.512 136.792 9.424L138.04 8.8C137.824 7.936 137.248 6.496 136.72 5.416L135.544 5.896ZM140.704 18.76V16.936H149.344V18.76H140.704ZM149.344 13.792V15.592H140.704V13.792H149.344ZM151.048 12.4H139.024V23.824H140.704V20.08H149.344V21.808C149.344 22.12 149.224 22.216 148.888 22.216C148.6 22.24 147.448 22.24 146.248 22.192C146.464 22.648 146.656 23.296 146.752 23.728C148.456 23.752 149.512 23.728 150.184 23.464C150.856 23.2 151.048 22.744 151.048 21.832V12.4ZM145.912 9.664V7.984H151.624V6.688H145.912V5.152H152.224V3.784H145.912V1.912H144.16V3.784H138.04V5.152H144.16V6.688H138.616V7.984H144.16V9.664H137.32V11.032H152.896V9.664H145.912ZM162.544 13.24H158.392L159.232 13C159.112 12.184 158.656 10.84 158.128 9.832H162.808C162.544 10.768 162.016 12.112 161.632 12.976L162.544 13.24ZM161.272 5.92H164.776V4.384H161.272V1.96H159.592V4.384H155.944V5.92H159.592V8.296H155.08V9.832H157.936L156.76 10.144C157.216 11.104 157.624 12.376 157.768 13.24H155.416V14.8H159.592V17.392H155.656V18.904H159.592V23.776H161.272V18.904H165.088V17.392H161.272V14.8H165.4V13.24H163.024C163.432 12.4 163.912 11.248 164.344 10.144L163.192 9.832H165.688V8.296H161.272V5.92ZM168.088 12.592H168.304C169.024 15.088 170.056 17.416 171.4 19.384C170.464 20.656 169.36 21.76 168.088 22.6V12.592ZM174.4 12.592C173.968 14.44 173.272 16.264 172.336 17.896C171.28 16.312 170.416 14.488 169.816 12.592H174.4ZM175.216 11.032L174.904 11.104H168.088V4.648H174.112V7.6C174.112 7.888 174.016 7.96 173.632 7.984C173.272 8.032 172.024 8.032 170.536 7.984C170.776 8.416 171.016 9.04 171.088 9.52C172.912 9.52 174.112 9.496 174.832 9.256C175.6 8.992 175.768 8.512 175.768 7.624V3.016H166.456V23.848H168.088V22.696C168.496 23.032 168.976 23.512 169.216 23.872C170.44 23.032 171.52 21.976 172.432 20.776C173.488 22.024 174.664 23.08 175.984 23.824C176.272 23.368 176.824 22.72 177.208 22.384C175.792 21.688 174.52 20.632 173.416 19.336C174.856 17.032 175.816 14.32 176.32 11.44L175.216 11.032ZM183.52 14.56V12.136H189.232V13.096C189.232 13.576 189.232 14.08 189.184 14.56H183.52ZM183.52 8.32H189.232V10.72H183.52V8.32ZM197.104 8.32V10.72H191.056V8.32H197.104ZM197.104 14.56H191.008C191.032 14.104 191.056 13.6 191.056 13.12V12.136H197.104V14.56ZM198.856 16.048V6.832H191.056V4.816H200.368V3.208H179.632V4.816H189.232V6.832H181.816V16.048H188.944C188.656 17.2 188.104 18.28 187 19.216C185.872 18.472 184.912 17.488 184.096 16.24L182.608 16.84C183.424 18.232 184.408 19.336 185.56 20.224C184.096 21.064 182.056 21.736 179.2 22.288C179.584 22.696 180.064 23.44 180.256 23.848C183.376 23.2 185.608 22.312 187.216 21.256C190.48 22.984 194.848 23.512 200.392 23.752C200.488 23.176 200.824 22.432 201.136 22C195.808 21.856 191.68 21.496 188.656 20.128C189.856 18.904 190.504 17.536 190.792 16.048H198.856ZM214.072 4.432H209.704V2.008H207.976V4.432H203.56V5.92H214.072V4.432ZM211.312 9.76C211.768 8.896 212.248 7.552 212.704 6.352L211.072 5.968C210.856 7 210.304 8.488 209.872 9.448L211.312 9.76ZM207.424 9.424C207.304 8.512 206.896 7.096 206.392 6.016L205 6.376C205.456 7.456 205.84 8.896 205.936 9.832L207.424 9.424ZM213.496 19.048C212.944 18.544 210.616 16.648 209.704 15.976V15.4H214.168V13.888H209.704V11.368H214.36V9.856H203.224V11.368H207.976V13.888H203.296V15.4H207.592C206.392 17.512 204.496 19.672 202.768 20.8C203.152 21.112 203.68 21.688 203.968 22.096C205.312 21.04 206.8 19.336 207.976 17.488V23.776H209.704V17.68C210.712 18.592 211.936 19.768 212.44 20.368L213.496 19.048ZM224.944 9.952H216.928V5.68C219.592 5.152 222.592 4.432 224.632 3.52L223.192 2.2C221.656 2.968 218.968 3.736 216.52 4.264L215.224 3.856V12.208C215.224 15.568 214.888 19.72 211.84 22.696C212.248 22.936 212.896 23.56 213.112 23.944C216.472 20.608 216.928 15.808 216.928 12.232V11.632H220.504V23.68H222.256V11.632H224.944V9.952Z" fill="#4B4B4B"/>
<path d="M284.707 78.7071C285.098 78.3166 285.098 77.6834 284.707 77.2929L278.343 70.9289C277.953 70.5384 277.319 70.5384 276.929 70.9289C276.538 71.3195 276.538 71.9526 276.929 72.3431L282.586 78L276.929 83.6569C276.538 84.0474 276.538 84.6805 276.929 85.0711C277.319 85.4616 277.953 85.4616 278.343 85.0711L284.707 78.7071ZM109 79L111.917 79L111.917 77L109 77L109 79ZM117.75 79L123.583 79L123.583 77L117.75 77L117.75 79ZM129.417 79L135.25 79L135.25 77L129.417 77L129.417 79ZM141.083 79L146.917 79L146.917 77L141.083 77L141.083 79ZM152.75 79L158.583 79L158.583 77L152.75 77L152.75 79ZM164.417 79L170.25 79L170.25 77L164.417 77L164.417 79ZM176.083 79L181.917 79L181.917 77L176.083 77L176.083 79ZM187.75 79L193.583 79L193.583 77L187.75 77L187.75 79ZM199.417 79L205.25 79L205.25 77L199.417 77L199.417 79ZM211.083 79L216.917 79L216.917 77L211.083 77L211.083 79ZM222.75 79L228.583 79L228.583 77L222.75 77L222.75 79ZM234.417 79L240.25 79L240.25 77L234.417 77L234.417 79ZM246.083 79L251.917 79L251.917 77L246.083 77L246.083 79ZM257.75 79L263.583 79L263.583 77L257.75 77L257.75 79ZM269.417 79L275.25 79L275.25 77L269.417 77L269.417 79ZM281.083 79L284 79L284 77L281.083 77L281.083 79ZM285.414 79.4142C286.195 78.6332 286.195 77.3668 285.414 76.5858L272.686 63.8579C271.905 63.0768 270.639 63.0768 269.858 63.8579C269.077 64.6389 269.077 65.9052 269.858 66.6863L281.172 78L269.858 89.3137C269.077 90.0948 269.077 91.3611 269.858 92.1421C270.639 92.9232 271.905 92.9232 272.686 92.1421L285.414 79.4142ZM109 80L111.917 80L111.917 76L109 76L109 80ZM117.75 80L123.583 80L123.583 76L117.75 76L117.75 80ZM129.417 80L135.25 80L135.25 76L129.417 76L129.417 80ZM141.083 80L146.917 80L146.917 76L141.083 76L141.083 80ZM152.75 80L158.583 80L158.583 76L152.75 76L152.75 80ZM164.417 80L170.25 80L170.25 76L164.417 76L164.417 80ZM176.083 80L181.917 80L181.917 76L176.083 76L176.083 80ZM187.75 80L193.583 80L193.583 76L187.75 76L187.75 80ZM199.417 80L205.25 80L205.25 76L199.417 76L199.417 80ZM211.083 80L216.917 80L216.917 76L211.083 76L211.083 80ZM222.75 80L228.583 80L228.583 76L222.75 76L222.75 80ZM234.417 80L240.25 80L240.25 76L234.417 76L234.417 80ZM246.083 80L251.917 80L251.917 76L246.083 76L246.083 80ZM257.75 80L263.583 80L263.583 76L257.75 76L257.75 80ZM269.417 80L275.25 80L275.25 76L269.417 76L269.417 80ZM281.083 80L284 80L284 76L281.083 76L281.083 80Z" fill="#4B4B4B"/>
<path d="M143.872 102.456V104.448C144.496 104.4 145.288 104.376 146.08 104.376H154.36C155.056 104.376 155.896 104.4 156.592 104.448V102.456C155.896 102.552 155.056 102.6 154.36 102.6H146.056C145.288 102.6 144.568 102.528 143.872 102.456ZM141.04 108.48V110.472C141.688 110.424 142.384 110.424 143.104 110.424H150.304C150.232 112.704 149.968 114.72 148.912 116.376C147.976 117.888 146.248 119.28 144.376 120.048L146.152 121.368C148.192 120.312 150.016 118.584 150.88 117C151.84 115.2 152.224 113.016 152.296 110.424H158.824C159.4 110.424 160.168 110.448 160.696 110.472V108.48C160.12 108.576 159.328 108.6 158.824 108.6H143.104C142.36 108.6 141.688 108.552 141.04 108.48ZM157.84 100.512L156.568 101.04C157.216 101.952 158.032 103.392 158.512 104.376L159.808 103.8C159.328 102.816 158.44 101.352 157.84 100.512ZM160.48 99.552L159.208 100.08C159.904 100.992 160.672 102.336 161.2 103.392L162.496 102.816C162.04 101.928 161.104 100.416 160.48 99.552ZM165.448 109.608V111.96C166.192 111.888 167.464 111.84 168.784 111.84H181.96C183.04 111.84 184.048 111.936 184.528 111.96V109.608C184 109.656 183.136 109.728 181.936 109.728H168.784C167.44 109.728 166.168 109.656 165.448 109.608ZM199.864 101.16L197.68 100.464C197.536 101.088 197.152 101.928 196.912 102.36C195.784 104.544 193.336 108.144 189.208 110.712L190.816 111.96C193.504 110.112 195.64 107.76 197.176 105.6H205.288C204.808 107.568 203.584 110.16 202.024 112.248C200.344 111.072 198.544 109.92 196.96 109.008L195.664 110.328C197.2 111.288 199.024 112.536 200.752 113.784C198.592 116.112 195.52 118.32 191.464 119.568L193.192 121.056C197.248 119.544 200.2 117.336 202.336 114.96C203.32 115.752 204.232 116.496 204.952 117.144L206.368 115.488C205.6 114.864 204.64 114.12 203.632 113.376C205.456 110.928 206.752 108.12 207.376 105.912C207.52 105.528 207.736 104.952 207.952 104.616L206.368 103.656C205.96 103.8 205.432 103.896 204.784 103.896H198.28C198.472 103.608 198.64 103.32 198.784 103.032C199.024 102.6 199.456 101.784 199.864 101.16ZM220.456 106.272H215.776V103.08H220.456V106.272ZM215.776 112.824H220.456V115.776C218.848 116.016 217.24 116.256 215.776 116.448V112.824ZM220.456 111.192H215.776V107.856H220.456V111.192ZM223.864 103.08V101.424H212.224V103.08H214.096V116.688C213.232 116.808 212.44 116.904 211.768 116.976L212.08 118.776C214.36 118.392 217.432 117.936 220.456 117.432V121.776H222.184V103.08H223.864ZM232.168 103.128L231.832 103.2H223.264V104.952H231.352C230.8 108.48 229.768 111.48 228.376 113.928C227.008 111.384 226.048 108.36 225.424 105.048L223.72 105.36C224.512 109.296 225.64 112.776 227.296 115.608C225.856 117.576 224.152 119.064 222.256 120.048C222.64 120.384 223.168 121.032 223.432 121.488C225.256 120.432 226.912 119.016 228.328 117.216C229.624 119.016 231.208 120.48 233.104 121.56C233.392 121.104 233.968 120.432 234.376 120.096C232.384 119.088 230.752 117.552 229.432 115.632C231.352 112.584 232.696 108.6 233.32 103.464L232.168 103.128ZM254.464 103.944H246.568V102.024H254.464V103.944ZM254.464 107.184H246.568V105.24H254.464V107.184ZM256.24 100.68H244.84V108.552H256.24V100.68ZM241.072 100.008C240.016 101.688 237.88 103.68 235.984 104.904C236.296 105.264 236.728 105.936 236.92 106.344C239.032 104.928 241.36 102.696 242.776 100.656L241.072 100.008ZM241.504 105.24C240.088 107.712 237.76 110.136 235.6 111.72C235.912 112.152 236.392 113.064 236.536 113.424C237.472 112.704 238.432 111.816 239.344 110.832V121.824H241.096V108.816C241.816 107.856 242.512 106.848 243.064 105.864L241.504 105.24ZM244.888 116.496C245.992 117.552 247.264 119.016 247.84 119.976L249.208 119.016C248.584 118.08 247.264 116.664 246.16 115.68L244.888 116.496ZM257.8 113.736H254.224V111.696H257.368V110.16H243.376V111.696H252.448V113.736H242.824V115.272H252.448V119.832C252.448 120.144 252.352 120.24 251.968 120.264C251.632 120.288 250.432 120.288 249.088 120.24C249.328 120.72 249.592 121.368 249.664 121.872C251.464 121.872 252.592 121.848 253.312 121.584C254.008 121.296 254.224 120.84 254.224 119.88V115.272H257.8V113.736Z" fill="#4B4B4B"/>
<path d="M258 269C258 269.552 258.448 270 259 270L268 270C268.552 270 269 269.552 269 269C269 268.448 268.552 268 268 268H260V260C260 259.448 259.552 259 259 259C258.448 259 258 259.448 258 260L258 269ZM349.293 177.293L347.225 179.361L348.639 180.775L350.707 178.707L349.293 177.293ZM343.088 183.497L338.952 187.634L340.366 189.048L344.503 184.912L343.088 183.497ZM334.816 191.77L330.679 195.907L332.093 197.321L336.23 193.184L334.816 191.77ZM326.543 200.043L322.407 204.179L323.821 205.593L327.957 201.457L326.543 200.043ZM318.27 208.316L314.134 212.452L315.548 213.866L319.684 209.73L318.27 208.316ZM309.997 216.588L305.861 220.725L307.275 222.139L311.412 218.003L309.997 216.588ZM301.725 224.861L297.588 228.997L299.003 230.412L303.139 226.275L301.725 224.861ZM293.452 233.134L289.316 237.27L290.73 238.684L294.866 234.548L293.452 233.134ZM285.179 241.407L281.043 245.543L282.457 246.957L286.593 242.821L285.179 241.407ZM276.907 249.679L272.77 253.816L274.184 255.23L278.321 251.093L276.907 249.679ZM268.634 257.952L264.497 262.088L265.912 263.503L270.048 259.366L268.634 257.952ZM260.361 266.225L258.293 268.293L259.707 269.707L261.775 267.639L260.361 266.225ZM257 269C257 270.105 257.895 271 259 271H277C278.105 271 279 270.105 279 269C279 267.895 278.105 267 277 267H261V251C261 249.895 260.105 249 259 249C257.895 249 257 249.895 257 251V269ZM348.586 176.586L346.518 178.654L349.346 181.482L351.414 179.414L348.586 176.586ZM342.381 182.79L338.245 186.927L341.073 189.755L345.21 185.619L342.381 182.79ZM334.109 191.063L329.972 195.199L332.801 198.028L336.937 193.891L334.109 191.063ZM325.836 199.336L321.699 203.472L324.528 206.301L328.664 202.164L325.836 199.336ZM317.563 207.609L313.427 211.745L316.255 214.573L320.391 210.437L317.563 207.609ZM309.29 215.881L305.154 220.018L307.982 222.846L312.119 218.71L309.29 215.881ZM301.018 224.154L296.881 228.29L299.71 231.119L303.846 226.982L301.018 224.154ZM292.745 232.427L288.609 236.563L291.437 239.391L295.573 235.255L292.745 232.427ZM284.472 240.699L280.336 244.836L283.164 247.664L287.301 243.528L284.472 240.699ZM276.199 248.972L272.063 253.109L274.891 255.937L279.028 251.801L276.199 248.972ZM267.927 257.245L263.79 261.381L266.619 264.21L270.755 260.073L267.927 257.245ZM259.654 265.518L257.586 267.586L260.414 270.414L262.482 268.346L259.654 265.518Z" fill="#4B4B4B"/>
<path d="M330.13 226.6C330.13 225.616 330.922 224.848 331.906 224.848C332.866 224.848 333.658 225.616 333.658 226.6C333.658 227.56 332.866 228.352 331.906 228.352C330.922 228.352 330.13 227.56 330.13 226.6ZM328.978 226.6C328.978 228.208 330.298 229.504 331.906 229.504C333.514 229.504 334.81 228.208 334.81 226.6C334.81 224.992 333.514 223.672 331.906 223.672C330.298 223.672 328.978 224.992 328.978 226.6ZM314.506 234.688L316.306 236.512C316.666 236.008 317.194 235.264 317.674 234.664C318.778 233.32 320.77 230.704 321.922 229.288C322.738 228.304 323.194 228.208 324.13 229.12C325.138 230.104 327.37 232.48 328.762 234.064C330.298 235.816 332.41 238.264 334.114 240.328L335.77 238.576C333.922 236.608 331.522 233.992 329.914 232.288C328.498 230.776 326.458 228.64 324.994 227.248C323.362 225.712 322.234 225.976 320.938 227.488C319.426 229.264 317.338 231.928 316.21 233.08C315.562 233.728 315.13 234.16 314.506 234.688ZM339.682 230.608V232.96C340.426 232.888 341.698 232.84 343.018 232.84H356.194C357.274 232.84 358.282 232.936 358.762 232.96V230.608C358.234 230.656 357.37 230.728 356.17 230.728H343.018C341.674 230.728 340.402 230.656 339.682 230.608ZM377.95 223.096L376.63 223.648C377.422 224.752 378.214 226.192 378.814 227.44L380.182 226.816C379.63 225.688 378.55 223.96 377.95 223.096ZM381.094 221.944L379.75 222.52C380.566 223.6 381.382 224.968 382.03 226.24L383.398 225.616C382.798 224.512 381.742 222.784 381.094 221.944ZM367.702 222.736L366.622 224.344C368.014 225.16 370.63 226.888 371.782 227.776L372.91 226.12C371.878 225.376 369.118 223.528 367.702 222.736ZM364.102 239.896L365.206 241.84C367.438 241.384 370.75 240.28 373.15 238.864C376.99 236.608 380.302 233.512 382.39 230.296L381.238 228.304C379.294 231.688 376.126 234.832 372.142 237.112C369.718 238.48 366.718 239.44 364.102 239.896ZM364.078 228.136L362.998 229.768C364.462 230.512 367.054 232.192 368.254 233.056L369.334 231.376C368.302 230.632 365.494 228.904 364.078 228.136ZM397.726 240.352V234.256H405.43V232.528H397.726V227.296H406.318V225.544H397.726V220.936H395.902V225.544H391.03C391.558 224.32 391.99 223.024 392.374 221.704L390.574 221.32C389.638 224.728 388.102 228.04 386.134 230.152C386.614 230.392 387.406 230.92 387.766 231.208C388.654 230.128 389.494 228.808 390.262 227.296H395.902V232.528H388.774V234.256H395.902V240.352H386.182V242.08H407.446V240.352H397.726ZM424.846 222.112C426.358 222.928 428.182 224.152 429.094 224.992L430.198 223.768C429.262 222.928 427.39 221.776 425.902 221.032L424.846 222.112ZM428.254 228.592C427.51 231.016 426.478 233.176 425.182 235.072C424.534 232.792 424.102 229.936 423.862 226.744H431.494V224.992H423.742C423.67 223.696 423.646 222.352 423.646 220.96H421.798C421.822 222.328 421.846 223.672 421.942 224.992H411.934V231.688C411.934 234.784 411.718 238.888 409.75 241.816C410.158 242.032 410.926 242.656 411.238 243.016C413.398 239.896 413.758 235.072 413.758 231.712V231.52H418.126C418.03 235.648 417.91 237.16 417.574 237.52C417.43 237.736 417.19 237.784 416.854 237.784C416.446 237.784 415.414 237.76 414.31 237.664C414.598 238.12 414.79 238.792 414.814 239.344C415.99 239.392 417.07 239.392 417.67 239.344C418.342 239.272 418.75 239.104 419.11 238.648C419.614 238.024 419.758 236.008 419.878 230.632V229.864H413.758V226.744H422.038C422.35 230.608 422.926 234.136 423.79 236.848C422.254 238.648 420.406 240.136 418.27 241.288C418.678 241.624 419.302 242.344 419.566 242.704C421.414 241.624 423.07 240.28 424.51 238.72C425.614 241.192 427.054 242.656 428.902 242.656C430.726 242.656 431.374 241.48 431.71 237.4C431.23 237.256 430.582 236.848 430.174 236.44C430.006 239.632 429.718 240.88 429.046 240.88C427.822 240.88 426.718 239.512 425.83 237.16C427.606 234.88 429.022 232.144 430.054 229.048L428.254 228.592ZM342.59 262.074C342.59 260.309 342.824 258.613 343.293 256.988C343.77 255.363 344.477 253.887 345.414 252.559C346.352 251.23 347.324 250.293 348.332 249.746L348.777 251.176C347.637 252.051 346.699 253.387 345.965 255.184C345.238 256.98 344.84 258.992 344.77 261.219L344.758 262.215C344.758 265.23 345.309 267.848 346.41 270.066C347.074 271.395 347.863 272.434 348.777 273.184L348.332 274.508C347.293 273.93 346.301 272.961 345.355 271.602C343.512 268.945 342.59 265.77 342.59 262.074ZM353.465 262.32V269H351.215V251.938H357.508C359.375 251.938 360.836 252.414 361.891 253.367C362.953 254.32 363.484 255.582 363.484 257.152C363.484 258.809 362.965 260.086 361.926 260.984C360.895 261.875 359.414 262.32 357.484 262.32H353.465ZM353.465 260.48H357.508C358.711 260.48 359.633 260.199 360.273 259.637C360.914 259.066 361.234 258.246 361.234 257.176C361.234 256.16 360.914 255.348 360.273 254.738C359.633 254.129 358.754 253.812 357.637 253.789H353.465V260.48ZM379.469 269H377.207V261.113H368.605V269H366.355V251.938H368.605V259.273H377.207V251.938H379.469V269ZM385.715 262.32V269H383.465V251.938H389.758C391.625 251.938 393.086 252.414 394.141 253.367C395.203 254.32 395.734 255.582 395.734 257.152C395.734 258.809 395.215 260.086 394.176 260.984C393.145 261.875 391.664 262.32 389.734 262.32H385.715ZM385.715 260.48H389.758C390.961 260.48 391.883 260.199 392.523 259.637C393.164 259.066 393.484 258.246 393.484 257.176C393.484 256.16 393.164 255.348 392.523 254.738C391.883 254.129 391.004 253.812 389.887 253.789H385.715V260.48ZM403.27 262.191C403.27 263.934 403.039 265.605 402.578 267.207C402.125 268.801 401.426 270.273 400.48 271.625C399.543 272.977 398.559 273.938 397.527 274.508L397.07 273.184C398.273 272.262 399.238 270.832 399.965 268.895C400.699 266.949 401.074 264.793 401.09 262.426V262.051C401.09 260.41 400.918 258.887 400.574 257.48C400.23 256.066 399.75 254.801 399.133 253.684C398.523 252.566 397.836 251.695 397.07 251.07L397.527 249.746C398.559 250.316 399.539 251.27 400.469 252.605C401.406 253.941 402.105 255.414 402.566 257.023C403.035 258.633 403.27 260.355 403.27 262.191Z" fill="#4B4B4B"/>
</svg>
